<?xml version="1.0" encoding="UTF-8"?>
<!DOCTYPE svg PUBLIC "-//W3C//DTD SVG 1.1//EN" "http://www.w3.org/Graphics/SVG/1.1/DTD/svg11.dtd">
<svg xmlns="http://www.w3.org/2000/svg" version="1.1" width="768px" height="432px" style="shape-rendering:geometricPrecision; text-rendering:geometricPrecision; image-rendering:optimizeQuality; fill-rule:evenodd; clip-rule:evenodd" xmlns:xlink="http://www.w3.org/1999/xlink">
<g><path style="opacity:0.883" fill="#004ad1" d="M 369.5,23.5 C 412.425,20.2901 444.092,37.4568 464.5,75C 463.833,75.6667 463.167,75.6667 462.5,75C 439.103,44.6399 408.436,32.9732 370.5,40C 336.461,49.2063 314.461,70.7063 304.5,104.5C 272.044,95.8188 245.211,104.485 224,130.5C 206.452,157.649 206.119,184.982 223,212.5C 237.386,231.613 256.553,242.28 280.5,244.5C 246.74,244.033 222.24,228.7 207,198.5C 193.373,162.177 200.873,131.011 229.5,105C 249.575,90.2855 271.908,84.7855 296.5,88.5C 308.353,52.751 332.687,31.0843 369.5,23.5 Z"/></g>
<g><path style="opacity:0.922" fill="#f49700" d="M 443.5,94.5 C 469.297,91.605 492.297,98.105 512.5,114C 531.294,133.623 536.461,156.456 528,182.5C 518.293,203.621 502.127,217.121 479.5,223C 449.364,229.574 421.031,224.908 394.5,209C 385.222,203.11 376.389,196.61 368,189.5C 349.363,207.738 327.197,219.571 301.5,225C 266.315,229.754 242.815,215.588 231,182.5C 226.271,147.895 240.771,126.062 274.5,117C 294.044,114.517 311.377,119.517 326.5,132C 335.281,138.945 343.614,146.445 351.5,154.5C 365.804,138.024 381.804,123.524 399.5,111C 413.355,103.048 428.022,97.5479 443.5,94.5 Z M 429.5,113.5 C 448.479,111.385 466.479,114.552 483.5,123C 505.595,140.557 509.761,161.724 496,186.5C 488.19,196.331 478.024,202.498 465.5,205C 433.043,211.511 404.21,204.011 379,182.5C 378.333,181.833 378.333,181.167 379,180.5C 389.781,170.45 401.114,161.117 413,152.5C 415.178,144.34 412.011,140.84 403.5,142C 391.39,151.607 379.723,161.774 368.5,172.5C 365.015,169.516 361.682,166.349 358.5,163C 372.858,144.305 390.525,129.638 411.5,119C 417.531,116.832 423.531,114.999 429.5,113.5 Z M 279.5,134.5 C 288.112,133.795 296.445,134.962 304.5,138C 318.516,144.68 330.849,153.68 341.5,165C 327.139,179.571 309.639,186.738 289,186.5C 285.196,185.521 281.362,185.355 277.5,186C 274.476,188.475 273.81,191.475 275.5,195C 303.877,199.931 328.544,192.431 349.5,172.5C 352.985,175.484 356.318,178.651 359.5,182C 344.24,197.467 325.906,207.467 304.5,212C 287.634,215.281 272.301,211.948 258.5,202C 244.645,188.528 241.812,173.028 250,155.5C 256.997,144.426 266.831,137.426 279.5,134.5 Z"/></g>
<g><path style="opacity:0.355" fill="#000000" d="M 633.5,241.5 C 647.301,243.142 652.801,250.809 650,264.5C 644.237,274.623 636.071,277.123 625.5,272C 616.96,263.933 616.293,255.266 623.5,246C 626.564,243.63 629.897,242.13 633.5,241.5 Z M 622.5,251.5 C 623.658,248.178 625.992,246.012 629.5,245C 640.645,242.483 647.312,246.816 649.5,258C 646.312,271.76 638.312,275.594 625.5,269.5C 620.247,264.119 619.247,258.119 622.5,251.5 Z"/></g>
<g><path style="opacity:0.918" fill="#004ad1" d="M 495.5,248.5 C 500.833,248.5 506.167,248.5 511.5,248.5C 511.5,257.167 511.5,265.833 511.5,274.5C 515.833,274.5 520.167,274.5 524.5,274.5C 524.5,279.5 524.5,284.5 524.5,289.5C 520.167,289.5 515.833,289.5 511.5,289.5C 511.5,311.167 511.5,332.833 511.5,354.5C 506.167,354.5 500.833,354.5 495.5,354.5C 495.5,332.833 495.5,311.167 495.5,289.5C 491.833,289.5 488.167,289.5 484.5,289.5C 484.5,284.5 484.5,279.5 484.5,274.5C 488.167,274.5 491.833,274.5 495.5,274.5C 495.5,265.833 495.5,257.167 495.5,248.5 Z"/></g>
<g><path style="opacity:0.538" fill="#000000" d="M 622.5,251.5 C 625.833,251.5 629.167,251.5 632.5,251.5C 632.5,252.5 632.5,253.5 632.5,254.5C 631.167,254.5 629.833,254.5 628.5,254.5C 627.833,267.833 627.167,267.833 626.5,254.5C 625.167,254.5 623.833,254.5 622.5,254.5C 622.5,253.5 622.5,252.5 622.5,251.5 Z"/></g>
<g><path style="opacity:0.519" fill="#000000" d="M 633.5,251.5 C 634.675,251.281 635.675,251.614 636.5,252.5C 637.432,254.795 638.265,257.129 639,259.5C 639.735,257.129 640.568,254.795 641.5,252.5C 642.325,251.614 643.325,251.281 644.5,251.5C 645.08,255.81 645.414,260.143 645.5,264.5C 644.5,264.5 643.5,264.5 642.5,264.5C 642.449,256.627 641.782,256.627 640.5,264.5C 637.355,263.923 635.855,261.923 636,258.5C 635.505,260.473 635.338,262.473 635.5,264.5C 634.5,264.5 633.5,264.5 632.5,264.5C 632.586,260.143 632.92,255.81 633.5,251.5 Z"/></g>
<g><path style="opacity:0.91" fill="#004ad1" d="M 148.5,272.5 C 161.615,270.564 172.782,274.23 182,283.5C 182.498,280.518 182.665,277.518 182.5,274.5C 188.167,274.5 193.833,274.5 199.5,274.5C 199.5,301.167 199.5,327.833 199.5,354.5C 193.833,354.5 188.167,354.5 182.5,354.5C 182.665,351.482 182.498,348.482 182,345.5C 177.334,350.917 171.501,354.417 164.5,356C 139.115,359.257 122.615,348.757 115,324.5C 111.611,305.652 117.444,290.485 132.5,279C 137.607,275.935 142.94,273.769 148.5,272.5 Z M 149.5,287.5 C 171.795,285.965 182.962,296.299 183,318.5C 178.569,336.642 167.069,344.142 148.5,341C 133.869,334.576 128.036,323.41 131,307.5C 133.952,297.719 140.119,291.053 149.5,287.5 Z"/></g>
<g><path style="opacity:0.918" fill="#004ad1" d="M 247.5,272.5 C 258.478,271.244 268.478,273.744 277.5,280C 284.09,286.43 287.59,294.263 288,303.5C 288.5,320.497 288.667,337.497 288.5,354.5C 283.167,354.5 277.833,354.5 272.5,354.5C 272.848,336.471 272.348,318.471 271,300.5C 268.508,291.67 262.674,287.337 253.5,287.5C 240.618,287.881 233.785,294.548 233,307.5C 232.5,323.163 232.333,338.83 232.5,354.5C 227.167,354.5 221.833,354.5 216.5,354.5C 216.5,327.833 216.5,301.167 216.5,274.5C 221.5,274.5 226.5,274.5 231.5,274.5C 231.337,276.857 231.503,279.19 232,281.5C 236.569,277.305 241.735,274.305 247.5,272.5 Z"/></g>
<g><path style="opacity:0.924" fill="#004ad1" d="M 336.5,272.5 C 349.615,270.564 360.782,274.23 370,283.5C 370.498,280.518 370.665,277.518 370.5,274.5C 375.833,274.5 381.167,274.5 386.5,274.5C 386.5,301.167 386.5,327.833 386.5,354.5C 381.167,354.5 375.833,354.5 370.5,354.5C 370.665,351.15 370.498,347.817 370,344.5C 363.417,353.204 354.584,357.204 343.5,356.5C 317.433,354.933 303.433,341.1 301.5,315C 303.177,292.423 314.844,278.256 336.5,272.5 Z M 337.5,287.5 C 363.856,287.265 374.356,299.932 369,325.5C 359.356,342.265 345.856,346.098 328.5,337C 314.21,322.64 313.876,307.973 327.5,293C 330.767,290.87 334.1,289.037 337.5,287.5 Z"/></g>
<g><path style="opacity:0.921" fill="#004ad1" d="M 435.5,272.5 C 452.117,270.395 464.617,276.395 473,290.5C 473.822,292.788 474.489,295.122 475,297.5C 475.5,316.497 475.667,335.497 475.5,354.5C 470.167,354.5 464.833,354.5 459.5,354.5C 459.948,335.778 459.448,317.112 458,298.5C 453.117,288.646 445.284,285.146 434.5,288C 428.333,290.167 424.167,294.333 422,300.5C 420.569,318.453 420.069,336.453 420.5,354.5C 415.167,354.5 409.833,354.5 404.5,354.5C 404.5,327.833 404.5,301.167 404.5,274.5C 409.5,274.5 414.5,274.5 419.5,274.5C 419.337,276.857 419.503,279.19 420,281.5C 424.601,277.291 429.768,274.291 435.5,272.5 Z"/></g>
<g><path style="opacity:0.908" fill="#004ad1" d="M 563.5,272.5 C 576.615,270.564 587.782,274.23 597,283.5C 597.498,280.518 597.665,277.518 597.5,274.5C 603.167,274.5 608.833,274.5 614.5,274.5C 614.5,301.167 614.5,327.833 614.5,354.5C 608.833,354.5 603.167,354.5 597.5,354.5C 597.665,351.482 597.498,348.482 597,345.5C 585.853,356.414 572.687,359.581 557.5,355C 533.871,344.576 525.038,326.742 531,301.5C 536.677,285.932 547.511,276.266 563.5,272.5 Z M 564.5,287.5 C 586.786,285.956 597.953,296.289 598,318.5C 593.569,336.642 582.069,344.142 563.5,341C 548.869,334.576 543.036,323.41 546,307.5C 548.952,297.719 555.119,291.053 564.5,287.5 Z"/></g>
<g><path style="opacity:0.763" fill="#a7a8a7" d="M 123.5,382.5 C 130.695,380.916 135.029,383.583 136.5,390.5C 134.076,390.808 131.743,390.474 129.5,389.5C 127.541,386.764 125.875,386.931 124.5,390C 127.468,392.223 130.802,393.89 134.5,395C 137.608,399.688 136.941,403.688 132.5,407C 128.375,407.854 124.375,407.52 120.5,406C 118.984,404.103 118.317,401.936 118.5,399.5C 121.984,399.328 124.984,400.328 127.5,402.5C 129,402.547 130,401.881 130.5,400.5C 126.513,398.528 122.679,396.194 119,393.5C 117.391,388.391 118.891,384.725 123.5,382.5 Z"/></g>
<g><path style="opacity:0.764" fill="#a7a8a7" d="M 145.5,382.5 C 151.833,382.5 158.167,382.5 164.5,382.5C 164.5,384.167 164.5,385.833 164.5,387.5C 162.167,387.5 159.833,387.5 157.5,387.5C 157.5,394.167 157.5,400.833 157.5,407.5C 155.5,407.5 153.5,407.5 151.5,407.5C 151.5,400.833 151.5,394.167 151.5,387.5C 149.5,387.5 147.5,387.5 145.5,387.5C 145.5,385.833 145.5,384.167 145.5,382.5 Z"/></g>
<g><path style="opacity:0.788" fill="#a7a8a7" d="M 173.5,382.5 C 177.514,382.334 181.514,382.501 185.5,383C 191.786,385.362 193.453,389.529 190.5,395.5C 187.301,398.057 183.634,399.057 179.5,398.5C 179.5,401.5 179.5,404.5 179.5,407.5C 177.5,407.5 175.5,407.5 173.5,407.5C 173.5,399.167 173.5,390.833 173.5,382.5 Z M 179.5,387.5 C 184.315,386.855 185.981,388.688 184.5,393C 182.866,393.494 181.199,393.66 179.5,393.5C 179.5,391.5 179.5,389.5 179.5,387.5 Z"/></g>
<g><path style="opacity:0.793" fill="#a7a8a7" d="M 201.5,382.5 C 203.5,382.5 205.5,382.5 207.5,382.5C 207.5,390.833 207.5,399.167 207.5,407.5C 205.5,407.5 203.5,407.5 201.5,407.5C 201.5,399.167 201.5,390.833 201.5,382.5 Z"/></g>
<g><path style="opacity:0.765" fill="#a7a8a7" d="M 240.5,382.5 C 247.766,381.466 253.1,384.133 256.5,390.5C 254.235,391.647 251.902,391.814 249.5,391C 246.004,386.908 242.504,387.075 239,391.5C 236.629,398.77 239.129,402.27 246.5,402C 249.406,400.153 252.573,398.986 256,398.5C 255.926,402.774 253.759,405.607 249.5,407C 237.86,409.02 232.027,404.186 232,392.5C 233.261,387.745 236.095,384.412 240.5,382.5 Z"/></g>
<g><path style="opacity:0.767" fill="#a7a8a7" d="M 266.5,382.5 C 268.5,382.5 270.5,382.5 272.5,382.5C 272.5,389.167 272.5,395.833 272.5,402.5C 275.167,402.5 277.833,402.5 280.5,402.5C 280.5,404.167 280.5,405.833 280.5,407.5C 275.833,407.5 271.167,407.5 266.5,407.5C 266.5,399.167 266.5,390.833 266.5,382.5 Z"/></g>
<g><path style="opacity:0.787" fill="#a7a8a7" d="M 296.5,382.5 C 311.439,382.598 316.272,389.598 311,403.5C 306.483,407.242 301.316,408.409 295.5,407C 288.584,402.918 286.418,397.085 289,389.5C 290.742,386.254 293.242,383.921 296.5,382.5 Z M 299.5,387.5 C 306.87,389.259 308.87,393.592 305.5,400.5C 301.765,403.257 298.265,402.924 295,399.5C 293.307,394.085 294.807,390.085 299.5,387.5 Z"/></g>
<g><path style="opacity:0.782" fill="#a7a8a7" d="M 322.5,382.5 C 324.5,382.5 326.5,382.5 328.5,382.5C 328.334,387.844 328.501,393.177 329,398.5C 331.122,403.32 333.788,403.653 337,399.5C 337.499,393.843 337.666,388.176 337.5,382.5C 339.5,382.5 341.5,382.5 343.5,382.5C 343.884,389.589 343.384,396.589 342,403.5C 336,408.833 330,408.833 324,403.5C 322.616,396.589 322.116,389.589 322.5,382.5 Z"/></g>
<g><path style="opacity:0.778" fill="#a7a8a7" d="M 353.5,382.5 C 360.255,381.668 366.589,382.835 372.5,386C 377.04,393.269 376.373,399.936 370.5,406C 364.928,407.351 359.262,407.851 353.5,407.5C 353.5,399.167 353.5,390.833 353.5,382.5 Z M 359.5,388.5 C 369.309,388.138 371.976,392.305 367.5,401C 364.986,402.252 362.32,402.752 359.5,402.5C 359.5,397.833 359.5,393.167 359.5,388.5 Z"/></g>
<g><path style="opacity:0.762" fill="#a7a8a7" d="M 404.5,382.5 C 411.349,380.748 416.016,383.081 418.5,389.5C 417.333,389.833 416.167,390.167 415,390.5C 412.546,390.241 410.546,389.241 409,387.5C 407.5,387.667 406.667,388.5 406.5,390C 408.713,392.081 411.38,393.415 414.5,394C 419.833,398.333 419.833,402.667 414.5,407C 411.167,407.667 407.833,407.667 404.5,407C 401.211,405.59 399.544,403.09 399.5,399.5C 401.833,399.5 404.167,399.5 406.5,399.5C 406.5,400.5 406.5,401.5 406.5,402.5C 408.977,402.949 410.977,402.283 412.5,400.5C 409.552,398.245 406.219,396.578 402.5,395.5C 398.48,390.53 399.147,386.197 404.5,382.5 Z"/></g>
<g><path style="opacity:0.779" fill="#a7a8a7" d="M 428.5,382.5 C 433.5,382.5 438.5,382.5 443.5,382.5C 443.5,384.167 443.5,385.833 443.5,387.5C 440.5,387.5 437.5,387.5 434.5,387.5C 434.5,389.167 434.5,390.833 434.5,392.5C 437.167,392.5 439.833,392.5 442.5,392.5C 442.5,394.167 442.5,395.833 442.5,397.5C 439.833,397.5 437.167,397.5 434.5,397.5C 434.5,399.167 434.5,400.833 434.5,402.5C 437.5,402.5 440.5,402.5 443.5,402.5C 443.5,404.167 443.5,405.833 443.5,407.5C 438.5,407.5 433.5,407.5 428.5,407.5C 428.5,399.167 428.5,390.833 428.5,382.5 Z"/></g>
<g><path style="opacity:0.789" fill="#a7a8a7" d="M 453.5,382.5 C 457.846,382.334 462.179,382.501 466.5,383C 474.019,387.747 474.352,392.914 467.5,398.5C 469.167,401.167 470.833,403.833 472.5,406.5C 470.235,407.647 467.902,407.814 465.5,407C 463.959,404.084 462.293,401.251 460.5,398.5C 459.516,401.428 459.183,404.428 459.5,407.5C 457.5,407.5 455.5,407.5 453.5,407.5C 453.5,399.167 453.5,390.833 453.5,382.5 Z M 459.5,387.5 C 462.712,387.106 465.046,388.272 466.5,391C 466.355,391.772 466.022,392.439 465.5,393C 463.527,393.495 461.527,393.662 459.5,393.5C 459.5,391.5 459.5,389.5 459.5,387.5 Z"/></g>
<g><path style="opacity:0.759" fill="#a7a8a7" d="M 480.5,382.5 C 482.792,382.244 484.959,382.577 487,383.5C 489,388.833 491,394.167 493,399.5C 495.336,393.992 497.17,388.325 498.5,382.5C 500.924,382.192 503.257,382.526 505.5,383.5C 502.565,391.139 499.732,398.806 497,406.5C 494.333,407.833 491.667,407.833 489,406.5C 486.061,398.514 483.227,390.514 480.5,382.5 Z"/></g>
<g><path style="opacity:0.684" fill="#a7a8a7" d="M 513.5,382.5 C 515.833,382.5 518.167,382.5 520.5,382.5C 520.5,390.833 520.5,399.167 520.5,407.5C 518.167,407.5 515.833,407.5 513.5,407.5C 513.5,399.167 513.5,390.833 513.5,382.5 Z"/></g>
<g><path style="opacity:0.777" fill="#a7a8a7" d="M 537.5,382.5 C 543.499,381.377 548.499,383.043 552.5,387.5C 553.246,388.736 553.579,390.07 553.5,391.5C 551.473,391.662 549.473,391.495 547.5,391C 543.593,386.503 539.759,386.669 536,391.5C 534.144,397.464 536.144,401.131 542,402.5C 545.308,400.328 548.975,398.995 553,398.5C 553.28,402.578 551.447,405.411 547.5,407C 534.188,409.354 528.355,403.854 530,390.5C 531.69,386.979 534.19,384.312 537.5,382.5 Z"/></g>
<g><path style="opacity:0.781" fill="#a7a8a7" d="M 563.5,382.5 C 568.5,382.5 573.5,382.5 578.5,382.5C 578.5,384.167 578.5,385.833 578.5,387.5C 575.5,387.5 572.5,387.5 569.5,387.5C 569.5,389.167 569.5,390.833 569.5,392.5C 572.167,392.5 574.833,392.5 577.5,392.5C 577.5,394.167 577.5,395.833 577.5,397.5C 574.833,397.5 572.167,397.5 569.5,397.5C 569.5,399.167 569.5,400.833 569.5,402.5C 572.5,402.5 575.5,402.5 578.5,402.5C 578.5,404.167 578.5,405.833 578.5,407.5C 573.5,407.5 568.5,407.5 563.5,407.5C 563.5,399.167 563.5,390.833 563.5,382.5 Z"/></g>
<g><path style="opacity:0.764" fill="#a7a8a7" d="M 593.5,382.5 C 600.695,380.916 605.029,383.583 606.5,390.5C 602.79,391.028 599.623,390.028 597,387.5C 593.88,388.593 593.713,390.093 596.5,392C 606.122,392.92 608.789,397.586 604.5,406C 599.114,408.395 594.114,407.895 589.5,404.5C 588.691,402.929 588.357,401.262 588.5,399.5C 592.641,400.24 596.641,401.24 600.5,402.5C 600.67,401.178 600.337,400.011 599.5,399C 595.553,397.915 592.053,396.081 589,393.5C 587.393,388.438 588.893,384.772 593.5,382.5 Z"/></g>
</svg>
